<mxfile host="app.diagrams.net" modified="2020-08-31T04:44:43.435Z" agent="5.0 (Macintosh; Intel Mac OS X 10_15_5) AppleWebKit/537.36 (KHTML, like Gecko) Chrome/85.0.4183.83 Safari/537.36" etag="TuOJbD7I2QzoINLWcqmA" version="13.6.5" type="github">
  <diagram id="laTIVxzu_AwuaDvqxupv" name="Page-1">
    <mxGraphModel dx="1298" dy="1943" grid="1" gridSize="10" guides="1" tooltips="1" connect="1" arrows="1" fold="1" page="1" pageScale="1" pageWidth="827" pageHeight="1169" background="#F1FAEE" math="0" shadow="0">
      <root>
        <mxCell id="0" />
        <mxCell id="1" parent="0" />
        <mxCell id="MxGzjag2qFtxoSXDcd-z-25" style="edgeStyle=orthogonalEdgeStyle;rounded=1;sketch=1;orthogonalLoop=1;jettySize=auto;html=1;fontColor=#1D3557;fontFamily=Comic Sans MS;fontSize=20;" parent="1" source="MxGzjag2qFtxoSXDcd-z-1" target="MxGzjag2qFtxoSXDcd-z-17" edge="1">
          <mxGeometry relative="1" as="geometry">
            <Array as="points">
              <mxPoint x="414" y="-1010" />
            </Array>
          </mxGeometry>
        </mxCell>
        <mxCell id="MxGzjag2qFtxoSXDcd-z-27" style="edgeStyle=orthogonalEdgeStyle;rounded=1;sketch=1;orthogonalLoop=1;jettySize=auto;html=1;strokeColor=#457B9D;fillColor=#A8DADC;fontColor=#1D3557;fontFamily=Comic Sans MS;fontSize=20;" parent="1" source="MxGzjag2qFtxoSXDcd-z-1" target="MxGzjag2qFtxoSXDcd-z-14" edge="1">
          <mxGeometry relative="1" as="geometry">
            <Array as="points">
              <mxPoint x="414" y="-1010" />
              <mxPoint x="234" y="-1010" />
            </Array>
          </mxGeometry>
        </mxCell>
        <mxCell id="MxGzjag2qFtxoSXDcd-z-1" value="&lt;font style=&quot;font-size: 20px;&quot;&gt;Root&lt;/font&gt;" style="whiteSpace=wrap;html=1;rounded=1;sketch=1;fontFamily=Comic Sans MS;fontSize=20;" parent="1" vertex="1">
          <mxGeometry x="354" y="-1130" width="120" height="70" as="geometry" />
        </mxCell>
        <mxCell id="MxGzjag2qFtxoSXDcd-z-29" value="" style="edgeStyle=orthogonalEdgeStyle;rounded=1;sketch=1;orthogonalLoop=1;jettySize=auto;html=1;strokeColor=#457B9D;fillColor=#A8DADC;fontFamily=Comic Sans MS;fontSize=20;fontColor=#1D3557;" parent="1" source="MxGzjag2qFtxoSXDcd-z-14" target="MxGzjag2qFtxoSXDcd-z-28" edge="1">
          <mxGeometry relative="1" as="geometry" />
        </mxCell>
        <mxCell id="MxGzjag2qFtxoSXDcd-z-31" value="" style="edgeStyle=orthogonalEdgeStyle;rounded=1;sketch=1;orthogonalLoop=1;jettySize=auto;html=1;strokeColor=#457B9D;fillColor=#A8DADC;fontFamily=Comic Sans MS;fontSize=20;fontColor=#1D3557;" parent="1" source="MxGzjag2qFtxoSXDcd-z-14" target="MxGzjag2qFtxoSXDcd-z-30" edge="1">
          <mxGeometry relative="1" as="geometry" />
        </mxCell>
        <mxCell id="MxGzjag2qFtxoSXDcd-z-14" value="LoggedOut" style="whiteSpace=wrap;html=1;rounded=1;sketch=1;fontFamily=Comic Sans MS;fontSize=20;fillColor=#fff2cc;strokeColor=#d6b656;" parent="1" vertex="1">
          <mxGeometry x="174" y="-970" width="120" height="60" as="geometry" />
        </mxCell>
        <mxCell id="MxGzjag2qFtxoSXDcd-z-33" value="" style="edgeStyle=orthogonalEdgeStyle;rounded=1;sketch=1;orthogonalLoop=1;jettySize=auto;html=1;strokeColor=#457B9D;fillColor=#A8DADC;fontFamily=Comic Sans MS;fontSize=20;fontColor=#1D3557;" parent="1" source="MxGzjag2qFtxoSXDcd-z-17" target="MxGzjag2qFtxoSXDcd-z-32" edge="1">
          <mxGeometry relative="1" as="geometry" />
        </mxCell>
        <mxCell id="MxGzjag2qFtxoSXDcd-z-35" value="" style="edgeStyle=orthogonalEdgeStyle;rounded=1;sketch=1;orthogonalLoop=1;jettySize=auto;html=1;strokeColor=#457B9D;fillColor=#A8DADC;fontFamily=Comic Sans MS;fontSize=20;fontColor=#1D3557;" parent="1" source="MxGzjag2qFtxoSXDcd-z-17" target="MxGzjag2qFtxoSXDcd-z-34" edge="1">
          <mxGeometry relative="1" as="geometry" />
        </mxCell>
        <mxCell id="MxGzjag2qFtxoSXDcd-z-17" value="LoggedIn" style="whiteSpace=wrap;html=1;rounded=1;sketch=1;fontFamily=Comic Sans MS;fontSize=20;" parent="1" vertex="1">
          <mxGeometry x="500" y="-960" width="120" height="60" as="geometry" />
        </mxCell>
        <mxCell id="MxGzjag2qFtxoSXDcd-z-28" value="Join" style="whiteSpace=wrap;html=1;rounded=1;fontFamily=Comic Sans MS;fontSize=20;sketch=1;" parent="1" vertex="1">
          <mxGeometry x="100" y="-860" width="120" height="60" as="geometry" />
        </mxCell>
        <mxCell id="MxGzjag2qFtxoSXDcd-z-30" value="Login" style="whiteSpace=wrap;html=1;rounded=1;fontFamily=Comic Sans MS;fontSize=20;sketch=1;" parent="1" vertex="1">
          <mxGeometry x="250" y="-860" width="120" height="60" as="geometry" />
        </mxCell>
        <mxCell id="MxGzjag2qFtxoSXDcd-z-32" value="Menu" style="whiteSpace=wrap;html=1;rounded=1;fontFamily=Comic Sans MS;fontSize=20;sketch=1;" parent="1" vertex="1">
          <mxGeometry x="420" y="-860" width="120" height="60" as="geometry" />
        </mxCell>
        <mxCell id="MxGzjag2qFtxoSXDcd-z-34" value="" style="whiteSpace=wrap;html=1;rounded=1;fontFamily=Comic Sans MS;fontSize=20;sketch=1;" parent="1" vertex="1">
          <mxGeometry x="590" y="-860" width="120" height="60" as="geometry" />
        </mxCell>
      </root>
    </mxGraphModel>
  </diagram>
</mxfile>
